<?xml version="1.0" ?><svg data-name="Layer 2" id="Layer_2" viewBox="0 0 32 32" xmlns="http://www.w3.org/2000/svg"><title/><path d="M20.5,6.64v5.353h-4V6.64a.567.567,0,0,0-.5669-.567H11.0669A.567.567,0,0,0,10.5,6.64V9.6631H6.0669A.5669.5669,0,0,0,5.5,10.23V25.36a.567.567,0,0,0,.5669.567H25.9331A.567.567,0,0,0,26.5,25.36V6.64a.567.567,0,0,0-.5669-.567H21.0669A.567.567,0,0,0,20.5,6.64Zm-9,.433h4V8.1094h-4Zm-1,17.8536h-4v-.9786h4Zm0-1.9786h-4v-10.41h4Zm0-11.41h-4v-.875h4Zm5,13.3887h-4v-.9786h4Zm0-1.9786h-4V9.1094h4V22.9482Zm5,1.9786h-4v-.9786h4Zm0-1.9786h-4V14.8418h4Zm0-9.1064h-4v-.8486h4Zm5,11.085h-4v-.9786h4Zm0-1.9786h-4V9.1094h4Zm0-14.8388h-4V7.0732h4Z"/></svg>